{"accessors" : [{"bufferView" : 0, "byteOffset" : 0, "componentType" : 5123, "count" : 27444, "type" : "SCALAR", "max" : [22777], "min" : [0]}, {"bufferView" : 1, "byteOffset" : 0, "componentType" : 5126, "count" : 22778, "type" : "VEC3", "max" : [51.239383697509766, 53, 25], "min" : [-51.239383697509766, -70, -29], "name" : "POSITION"}, {"bufferView" : 1, "byteOffset" : 12, "componentType" : 5126, "count" : 22778, "type" : "VEC3", "max" : [0.9999741911888123, 0.9990743398666382, 0.999439537525177], "min" : [-0.9999741911888123, -0.9998112916946411, -0.9996645450592041], "name" : "NORMAL"}], "asset" : {"generator" : "Aspose.3D 22.10", "version" : "2.0"}, "buffers" : [{"uri" : "data:application/octet-stream;base64,", "byteLength" : 713552}], "bufferViews" : [{"buffer" : 0, "byteOffset" : 0, "byteLength" : 54888, "target" : 34963}, {"buffer" : 0, "byteOffset" : 54892, "byteLength" : 658656, "byteStride" : 24, "target" : 34962}], "meshes" : [{"primitives" : [{"attributes" : {"POSITION" : 1, "NORMAL" : 2}, "indices" : 0, "mode" : 4}], "name" : ""}], "nodes" : [{"mesh" : 0, "name" : "model"}], "scene" : 0, "scenes" : [{"nodes" : [0]}]}